<?xml version="1.0" encoding="utf-8"?>
<!-- Generator: Adobe Illustrator 18.1.0, SVG Export Plug-In . SVG Version: 6.00 Build 0)  -->
<svg version="1.1" id="Layer_1" xmlns="http://www.w3.org/2000/svg" xmlns:xlink="http://www.w3.org/1999/xlink" x="0px" y="0px"
	 width="228px" height="228px" viewBox="44 -21 228 228" enable-background="new 44 -21 228 228" xml:space="preserve">
<g>
	<path fill-opacity="0.1" d="M228.3,113.4c0-38.7-31.3-70-70-70s-70,31.3-70,70h20c0-27.6,22.4-50,50-50s50,22.4,50,50"/>
	<circle fill-opacity="0.1" cx="163.3" cy="107.4" r="38"/>
	
		<linearGradient id="SVGID_1_" gradientUnits="userSpaceOnUse" x1="64.0886" y1="192.4216" x2="64.0886" y2="191.4216" gradientTransform="matrix(82 0 0 -82 -5097 15831)">
		<stop  offset="0" style="stop-color:#81B4E0"/>
		<stop  offset="1" style="stop-color:#0C5A94"/>
	</linearGradient>
	<circle fill="url(#SVGID_1_)" cx="158.3" cy="93.4" r="41"/>
	
		<linearGradient id="SVGID_2_" gradientUnits="userSpaceOnUse" x1="161.769" y1="210.5736" x2="161.769" y2="119.5736" gradientTransform="matrix(1 0 0 -1 0 192)">
		<stop  offset="0" style="stop-color:#F06B59"/>
		<stop  offset="1" style="stop-color:#DF2227"/>
	</linearGradient>
	<path fill="url(#SVGID_2_)" d="M258.3,43.4C230.7-12,163.5-34.6,108.1-7c-17.3,8.6-32,21.5-42.9,37.4l45,78
		C102,82.1,116.6,54,143,45.7c4.6-1.5,9.5-2.2,14.3-2.3"/>
	
		<linearGradient id="SVGID_3_" gradientUnits="userSpaceOnUse" x1="73.5386" y1="18.9631" x2="119.5386" y2="94.9631" gradientTransform="matrix(1 0 0 -1 0 192)">
		<stop  offset="0" style="stop-color:#388B41"/>
		<stop  offset="1" style="stop-color:#4CB749"/>
	</linearGradient>
	<path fill="url(#SVGID_3_)" d="M65.3,30.4c-34.4,51.4-20.7,121,30.7,155.4c15.9,10.7,34.3,17.1,53.3,18.6l47-80
		c-17.6,21.3-49.1,24.3-70.4,6.7c-7.2-6-12.6-13.9-15.6-22.7"/>
	
		<linearGradient id="SVGID_4_" gradientUnits="userSpaceOnUse" x1="227.6373" y1="10.8791" x2="178.6373" y2="128.8791" gradientTransform="matrix(1 0 0 -1 0 192)">
		<stop  offset="0" style="stop-color:#E4B022"/>
		<stop  offset="0.3" style="stop-color:#FCD209"/>
	</linearGradient>
	<path fill="url(#SVGID_4_)" d="M149.3,204.4c61.7,4.7,115.5-41.6,120.1-103.2c1.5-19.9-2.3-39.8-11.1-57.8h-101
		c27.6,0.1,49.9,22.6,49.8,50.2c-0.1,11.2-3.8,22-10.8,30.8"/>
	
		<linearGradient id="SVGID_5_" gradientUnits="userSpaceOnUse" x1="88.769" y1="86.5736" x2="88.769" y2="166.5736" gradientTransform="matrix(1 0 0 -1 0 192)">
		<stop  offset="0" style="stop-color:#000000;stop-opacity:0.15"/>
		<stop  offset="0.3" style="stop-color:#000000;stop-opacity:6.000000e-02"/>
		<stop  offset="1" style="stop-color:#000000;stop-opacity:3.000000e-02"/>
	</linearGradient>
	<path fill="url(#SVGID_5_)" d="M65.3,30.4l45,78c-3.3-11.2-2.6-23.2,2-34l-45-47"/>
	
		<linearGradient id="SVGID_6_" gradientUnits="userSpaceOnUse" x1="199.1909" y1="60.7396" x2="144.1909" y2="4.7396" gradientTransform="matrix(1 0 0 -1 0 192)">
		<stop  offset="0" style="stop-color:#000000;stop-opacity:0.15"/>
		<stop  offset="0.3" style="stop-color:#000000;stop-opacity:6.000000e-02"/>
		<stop  offset="1" style="stop-color:#000000;stop-opacity:3.000000e-02"/>
	</linearGradient>
	<path fill="url(#SVGID_6_)" d="M149.3,204.4l47-80c-7.4,8.8-17.7,14.9-29,17l-20,63"/>
	
		<linearGradient id="SVGID_7_" gradientUnits="userSpaceOnUse" x1="198.3944" y1="44.6242" x2="206.3944" y2="123.6242" gradientTransform="matrix(1 0 0 -1 0 192)">
		<stop  offset="0" style="stop-color:#000000;stop-opacity:0.15"/>
		<stop  offset="0.3" style="stop-color:#000000;stop-opacity:6.000000e-02"/>
		<stop  offset="1" style="stop-color:#000000;stop-opacity:3.000000e-02"/>
	</linearGradient>
	<path fill="url(#SVGID_7_)" d="M258.3,43.4h-101c15.2,0.1,29.6,7.1,39,19l64-16"/>
</g>
</svg>
