<?xml version="1.0" encoding="utf-8"?>
<!-- Generator: Adobe Illustrator 18.1.0, SVG Export Plug-In . SVG Version: 6.00 Build 0)  -->
<svg version="1.1" id="Layer_1" xmlns="http://www.w3.org/2000/svg" xmlns:xlink="http://www.w3.org/1999/xlink" x="0px" y="0px"
	 width="138.2px" height="150px" viewBox="394 22 138.2 150" enable-background="new 394 22 138.2 150" xml:space="preserve">
<g transform="translate(-1.000000, -1.000000)">
	<g transform="translate(0.699997, 0.400002)">
		<path fill="#47848F" d="M443.1,54.8c-19.5-3.6-34.9,0.2-41.1,10.8c-4.6,7.9-3.3,18.5,3.2,29.7c0.5,1,1.8,1.3,2.7,0.7
			c1-0.5,1.3-1.8,0.7-2.7c-5.8-10.1-6.9-19.2-3.2-25.7c5.1-8.8,18.9-12.2,36.9-8.9c1.1,0.2,2.1-0.5,2.3-1.6
			C444.9,56,444.2,55,443.1,54.8L443.1,54.8z M415.4,109c7.9,8.7,18.1,16.8,29.8,23.5c28.3,16.3,58.4,20.7,73.3,10.6
			c0.9-0.6,1.1-1.9,0.5-2.8c-0.6-0.9-1.9-1.1-2.8-0.5c-13.3,9.1-41.9,4.9-69-10.7c-11.3-6.5-21.3-14.4-28.9-22.8
			c-0.7-0.8-2-0.9-2.8-0.1C414.7,106.9,414.6,108.2,415.4,109L415.4,109z"/>
		<path fill="#47848F" d="M513.7,106.6c12.8-15.1,17.2-30.3,11.1-40.9c-4.5-7.8-14.1-11.9-26.7-12.1c-1.1,0-2,0.9-2,2
			c0,1.1,0.9,2,2,2c11.4,0.1,19.6,3.7,23.3,10.1c5.1,8.8,1.1,22.4-10.7,36.3c-0.7,0.8-0.6,2.1,0.2,2.8
			C511.7,107.5,513,107.4,513.7,106.6L513.7,106.6z M480.9,55.4c-11.5,2.5-23.8,7.3-35.6,14.1c-29.2,16.9-48.3,41.7-45.6,59.8
			c0.2,1.1,1.2,1.8,2.3,1.7s1.8-1.2,1.7-2.3c-2.3-16,15.7-39.6,43.7-55.7c11.5-6.6,23.4-11.3,34.5-13.7c1.1-0.2,1.8-1.3,1.5-2.4
			C483,55.9,482,55.2,480.9,55.4L480.9,55.4z"/>
		<path fill="#47848F" d="M433.6,141.8c6.7,18.6,17.6,30.1,29.9,30.1c9,0,17.2-6.1,23.7-16.9c0.6-0.9,0.3-2.2-0.7-2.7
			c-0.9-0.6-2.2-0.3-2.7,0.7c-5.8,9.7-12.9,14.9-20.3,14.9c-10.2,0-19.9-10.2-26.1-27.5c-0.4-1-1.5-1.6-2.6-1.2
			C433.7,139.6,433.2,140.8,433.6,141.8L433.6,141.8z M494.6,138.2c3.5-11,5.3-23.8,5.3-37.1c0-33.1-11.6-61.7-28.1-69
			c-1-0.4-2.2,0-2.6,1c-0.4,1,0,2.2,1,2.6c14.7,6.5,25.7,33.6,25.7,65.4c0,12.9-1.8,25.2-5.1,35.9c-0.3,1.1,0.3,2.2,1.3,2.5
			S494.2,139.2,494.6,138.2L494.6,138.2z"/>
		<path fill="#47848F" d="M532.2,136.2c0-5.3-4.3-9.6-9.6-9.6s-9.6,4.3-9.6,9.6c0,5.3,4.3,9.6,9.6,9.6S532.2,141.5,532.2,136.2
			L532.2,136.2z M528.2,136.2c0,3.1-2.5,5.6-5.6,5.6s-5.6-2.5-5.6-5.6c0-3.1,2.5-5.6,5.6-5.6S528.2,133.1,528.2,136.2L528.2,136.2z"
			/>
		<path fill="#47848F" d="M404.1,145.8c5.3,0,9.6-4.3,9.6-9.6c0-5.3-4.3-9.6-9.6-9.6c-5.3,0-9.6,4.3-9.6,9.6
			C394.6,141.5,398.8,145.8,404.1,145.8L404.1,145.8z M404.1,141.8c-3.1,0-5.6-2.5-5.6-5.6c0-3.1,2.5-5.6,5.6-5.6
			c3.1,0,5.6,2.5,5.6,5.6C409.7,139.3,407.2,141.8,404.1,141.8L404.1,141.8z"/>
		<path fill="#47848F" d="M463.5,41.8c5.3,0,9.6-4.3,9.6-9.6s-4.3-9.6-9.6-9.6s-9.6,4.3-9.6,9.6S458.2,41.8,463.5,41.8L463.5,41.8z
			 M463.5,37.8c-3.1,0-5.6-2.5-5.6-5.6s2.5-5.6,5.6-5.6s5.6,2.5,5.6,5.6S466.5,37.8,463.5,37.8L463.5,37.8z"/>
		<path fill="#47848F" d="M464.9,107.9c-3.7,0.8-7.4-1.6-8.2-5.3c-0.8-3.7,1.6-7.4,5.3-8.2c3.7-0.8,7.4,1.6,8.2,5.3
			C471,103.4,468.7,107.1,464.9,107.9z"/>
	</g>
</g>
</svg>
