<?xml version="1.0" encoding="utf-8"?>
<!-- Generator: Adobe Illustrator 18.1.0, SVG Export Plug-In . SVG Version: 6.00 Build 0)  -->
<svg version="1.1" id="Layer_1" xmlns="http://www.w3.org/2000/svg" xmlns:xlink="http://www.w3.org/1999/xlink" x="0px" y="0px"
	 width="189px" height="181px" viewBox="-33 38 189 181" enable-background="new -33 38 189 181" xml:space="preserve">
<path fill="#030303" d="M57.3,38h2.6c1.2,1,2.3,2,3.4,3c6.3,0.2,12.8,0.3,18.7-2.4c4.3,0.9,8.6,1.7,13,2c5.3,0.5,9.2,4.4,13.3,7.3
	c2.8-0.3,5.6-0.9,8.4-1c-0.9,2.1-3.2,2.5-4.9,3.6c0.5,1.1,1.1,2.1,1.8,3.1c6.5,8.6,12.6,18.4,12.7,29.5c0.8,8.4-1.2,16.7-3.4,24.8
	c-4,9.2-10.8,17.1-18.1,23.9c-3.4,3.3-8.4,3.6-12.9,4.5c-1.2-0.7-2.4-1.4-3.6-2.1c2.6-0.2,5.2-0.6,7.8-0.9c0.5-0.4,1.4-1.2,1.8-1.6
	c0.6-0.1,1.9-0.1,2.5-0.2c7.8-5.8,15.1-12.9,18.9-21.9c4.5-13.6,6-29.1,0.1-42.5c-5.5,3.1-12.3,2.2-17.5-1
	c-5.3-1.9-5.9-8.2-7.3-12.8c3.3-1.5,6.3-3.8,10-4.2c-2.6-2.1-5.4-4.2-8.8-4.6c-4.8-0.7-9.4-2.2-14.1-3.3c-0.5,1.3-0.2,3.1-1.6,4
	c-0.9-0.5-1.8-0.9-2.7-1.5c-2.4-0.1-4.8-0.1-7.2,0c5.8,3.1,12.8,2.7,18.1,6.9c-0.2-0.8-0.6-2.5-0.8-3.3c2.5-0.3,4.9,0.3,6.7,2.1
	c-2.5,1.7-4.4,4.7-7.5,5c-0.7-0.8-1.3-1.6-1.9-2.4c-2.6,6.1-9.5,8.3-15.6,8.7c-8.5,0.5-17.9-0.9-24.2-7.2
	c-8.1,4.2-15.8,9.7-21.6,16.8c-2.9,5.7-7.6,10.9-7.5,17.6c-0.2,7.5,3.5,14.5,7.9,20.3c4.1,5.5,8.6,10.7,14.1,14.8
	c-1.1,0.3-2.3,0.7-3.4,1c-5.2-4.3-9.7-9.5-13.4-15.2c-3.4-5.2-8-10.3-7.9-16.9c-0.9-8,2.5-15.7,6.9-22c4.4-4.6,8.3-9.9,14.1-12.8
	c7.1-5.4,15.1-9.5,23.3-13c1.2-0.5,2.5-1,3.7-1.5C59.8,41.2,58.6,39.6,57.3,38 M51.7,50.3c9.2,0.5,18.4-0.5,27.6,0
	C70.9,45.6,60,45,51.7,50.3 M100.4,54.8c3.8,2.2,8.3,2.8,12.2,4.6c0.3-3.5-3.6-5.4-5.5-7.8C104.9,52.7,102.7,53.8,100.4,54.8
	 M49.9,53.6c6.6,4.5,15,4.2,22.6,3.5c-0.6-1.2-1.1-2.4-1.7-3.6C63.9,53.6,56.9,53.5,49.9,53.6 M99.4,58.1c0.9,5.1,6.6,5.5,10.5,7.2
	c-1.2-1.4-2.5-2.8-3-4.7C104.3,60,101.9,59,99.4,58.1z"/>
<path fill="#030303" d="M50.4,72.1c4.3-3.6,10.2-4.3,15.6-4.8c7.5-0.7,14.9,0.6,22.4,0.8c2.6,0.8,5.3,1.7,8,1.7
	c7.1,3.8,14.6,8.8,17.2,16.8c0.7,1.2,2,2,3,3c-1.5,1.7-4.3,1.8-5.8,0c-1.9-1.7-2.6-4.2-2.9-6.6c-4.6-3.8-8.5-9.1-14.6-10.6
	C79.3,68.1,64.7,72.5,50.4,72.1z"/>
<path fill="#070707" d="M45.6,76.5c0.4-2.6-0.6-6.6,2.8-7.3c0.4,1.5,0.7,3.1,1,4.7c0.6,0.9,1.3,1.9,1.4,3
	C49.2,78,47.2,77.7,45.6,76.5z"/>
<path fill="#040404" d="M75.1,76c2-3.1,5.8-1.3,8.8-1.2c6.5,1.1,13.8,1.9,18.6,6.9c-6.5,1.6-12.1-3-18.4-3.5
	C81.1,77.6,77.6,78.2,75.1,76z"/>
<path d="M34.4,124.2c1.1-0.3,2.3-0.7,3.4-1c3.3,2.3,6.6,4.5,10,6.6c6.5-2.1,13.1-3.9,19.2-7.1c1,3.4,1.7,6.9,2.6,10.4
	c6,2.2,12.5,1.5,18.8,1.2c1.2,0.7,2.4,1.4,3.6,2.1c-6.2,0.8-12.6,0.4-18.8,1.3c6,12.2,14.8,22.7,23.9,32.7c4.8,4.8,11.2,7.1,17.1,10
	c6.9,3.5,14.7,5,21.7,8.2c5.2,2.3,11.2,3.6,15.1,8.1c4.5,4.2,4.7,11,3.4,16.6c-3.9-1.7-2.2-6.3-2.6-9.7c-0.5-0.1-1.5-0.2-1.9-0.3
	c0.2,3.5,0.1,7.8-4.1,8.9c0.2-4.7,1-9.4,0.8-14.1c-1.2,1.6-2.7,3-3.6,4.7c-0.5,2.2-0.4,4.4-0.7,6.6c-0.6-0.3-1.9-0.9-2.5-1.1
	c-1.7-4.4,1.1-8.7,2.1-13c-8.5-3.4-16.8-7.4-25.6-10.2c-3.8-1.4-7.3-3.5-10.9-5.2c-10.1-4.4-17.1-13.5-23.4-22.2
	c-4.2-7.2-11.7-12.8-12.5-21.7c0.6,6.7-0.4,13.6,0.9,20.2c1,5.5,2.4,11,4.7,16.2c2.6,6.8,4.3,13.9,5.9,21.1
	c2.8,8.1,5.5,16.3,7.2,24.7c-1.3-0.2-2.6-0.4-3.9-0.8c-2.5-2.9-2.7-7-4.1-10.4c-2.3-5.7-3.1-11.8-5-17.5c-1.7-5-1.8-10.4-3.9-15.4
	c-4.4-11.7-6.4-24.3-6.1-36.8c-7.1-1.6-14.6-4.2-21.9-1.8c-7.7,2-15.5,3.8-22.7,7.1c-5.5,2.4-11.9,3.5-16.2,8
	c-5.9,8-9.6,17.4-15,25.7c-1.8,3.4-4.1,6.7-3.6,10.7c2.9,0.9,6.1,1.4,8.7,3c2.6,2.1,4,5.2,6.1,7.7c-0.3,0.6-1,1.8-1.3,2.4
	c-3.5-1.3-4.8-5-7.4-7.4c-2-0.7-4.1-0.7-6.1-0.9c-0.2,2.6-0.7,5.3,0.2,7.7c2,2.8,5.2,4.6,6.9,7.7c0.7,2.3-2.5,2.3-3.5,1
	c-2.4-2.2-4.9-4.5-6.4-7.4c-1-3.1-1.4-6.3-2.3-9.4c-1,3-2.7,6-2,9.2c0.7,3,2.6,5.6,3.6,8.5c-1.6-0.1-3.5,0.1-4.4-1.6
	c-2.9-2.9-2.7-7.1-3-10.9c-1,2.2-1.9,4.5-3,6.7c-0.1,2.9,0,5.7,0,8.5c-1-0.1-2-0.3-3.1-0.4c-0.4-5.4-0.1-11.2,2.7-16
	c4.8-6.3,10.7-11.7,14.5-18.7c1.8-4.7,5.1-8.5,6.8-13.2c1.4-3.7,3.6-7.1,5.6-10.5c1.3-2.2,2.3-4.7,4.4-6.2c6.2-3.8,12.8-7,19.6-9.4
	c6.4-3.2,13.6-4.3,20.4-6.4C39.6,128.7,36.9,126.6,34.4,124.2 M53.9,131.9c3.5,0.9,7.1,1.8,10.7,1.8c-0.4-1.8-0.8-3.6-1.2-5.4
	C60.1,129.1,56.7,129.8,53.9,131.9z"/>
</svg>
