<?xml version="1.0" encoding="utf-8"?>
<!-- Generator: Adobe Illustrator 18.1.0, SVG Export Plug-In . SVG Version: 6.00 Build 0)  -->
<svg version="1.1" id="Layer_1" xmlns="http://www.w3.org/2000/svg" xmlns:xlink="http://www.w3.org/1999/xlink" x="0px" y="0px"
	 width="256px" height="256px" viewBox="0 0 256 256" enable-background="new 0 0 256 256" xml:space="preserve">
<g>
	<path fill="#80BD01" d="M128,7.1c1,0,1.7,0.2,2,0.3l101.5,58.7l0.2,0.1l0.2,0.1c0.4,0.2,1.2,1.4,1.2,2.7v117.9
		c0,1.2-1.4,2.5-2.2,3.2l-100.9,58.5c-0.4,0.1-1.1,0.3-2.1,0.3c-1,0-1.7-0.2-2-0.3L24.5,189.9l-0.2-0.1l-0.2-0.1
		c-0.4-0.2-1.2-1.4-1.2-2.7V69.1c0-1.2,1.4-2.5,2.2-3.2L125.9,7.4C126.3,7.2,127,7.1,128,7.1 M128-2c-2.2,0-4.5,0.5-6.3,1.4
		l-101.8,59c-3.5,2.6-6.2,6.2-6.2,10.7V187c0,4.5,2.6,8.9,6.2,10.7l101.8,58.9c1.8,0.9,4,1.4,6.2,1.4c2.2,0,4.5-0.5,6.3-1.4
		l101.8-59c3.5-2.6,6.2-6.2,6.2-10.7V69c0-4.5-2.6-8.9-6.2-10.7L134.2-0.6C132.5-1.5,130.3-2,128-2L128-2z"/>
</g>
</svg>
