<?xml version="1.0" encoding="utf-8"?>
<!-- Generator: Adobe Illustrator 18.1.0, SVG Export Plug-In . SVG Version: 6.00 Build 0)  -->
<svg version="1.1" xmlns="http://www.w3.org/2000/svg" xmlns:xlink="http://www.w3.org/1999/xlink" x="0px" y="0px" width="1728px"
	 height="720px" viewBox="768 -264 1728 720" enable-background="new 768 -264 1728 720" xml:space="preserve">
<g id="Layer_2">
	<rect x="768" y="-264" fill="#3A3A3A" stroke="#000000" stroke-miterlimit="10" width="1728" height="720"/>
</g>
<g id="Layer_1">
	<g>
		<path fill="#FFFFFF" d="M1102.1,108.6c0-4.5-2.7-9-6.2-10.7L994.1,39c-1.8-0.9-3.6-1.8-5.4-1.8h-0.9c-1.8,0-3.6,0.9-5.4,1.8
			L879.7,97.9c-3.6,1.8-6.2,6.2-6.2,10.7v158c0,1.8,0.9,4.5,2.7,5.4c1.8,0.9,4.5,0.9,6.2,0l60.8-34.9c3.6-2.7,6.2-6.2,6.2-10.7
			v-74.1c0-4.5,2.7-8.1,6.2-10.7l25.9-15.2c1.8-0.9,4.5-1.8,6.2-1.8c1.8,0,4.5,0.9,6.2,1.8l25.9,15.2c3.6,1.8,6.2,6.2,6.2,10.7v74.1
			c0,4.5,2.7,8.1,6.2,10.7l60.8,34.9c1.8,0.9,4.5,0.9,6.2,0c1.8-0.9,2.7-2.7,2.7-5.4V108.6z"/>
		<path fill="#FFFFFF" d="M1645.9-108.4c-1.8-0.9-4.5-0.9-6.2,0c-1.8,0.9-2.7,2.7-2.7,5.4V53.3c0,1.8-0.9,2.7-1.8,3.6
			s-2.7,0.9-4.5,0l-25.9-14.3c-3.6-1.8-9-1.8-12.5,0l-101.8,58.9c-3.6,1.8-6.2,6.2-6.2,10.7v117.9c0,4.5,2.7,8.1,6.2,10.7
			l101.8,58.9c3.6,1.8,9,1.8,12.5,0l101.8-58.9c3.6-1.8,6.2-6.2,6.2-10.7V-63.8c0-4.5-2.7-9-6.2-10.7L1645.9-108.4z M1636,190.8
			c0,0.9-0.9,1.8-1.8,2.7l-34.9,20.5c-0.9,0.9-1.8,0.9-2.7,0l-34.9-20.5c-0.9-0.9-1.8-1.8-1.8-2.7v-40.2c0-0.9,0.9-1.8,1.8-2.7
			l34.9-20.5c0.9-0.9,1.8-0.9,2.7,0l34.9,20.5c0.9,0.9,1.8,1.8,1.8,2.7V190.8z"/>
		<path fill="#FFFFFF" d="M2010.1,148.8c3.6-1.8,6.2-6.2,6.2-10.7v-28.5c0-4.5-2.7-8.1-6.2-10.7l-100.9-58c-3.6-1.8-9-1.8-12.5,0
			L1795,99.7c-3.6,1.8-6.2,6.2-6.2,10.7v117.9c0,4.5,2.7,9,6.2,10.7l100.9,58c3.6,1.8,8.1,1.8,12.5,0l61.6-33.9
			c1.8-0.9,3.6-2.7,3.6-5.4c0-1.8-0.9-4.5-2.7-5.4l-102.7-58.9c-1.8-0.9-2.7-3.6-2.7-5.4v-36.8c0-1.8,0.9-4.5,2.7-5.4l32.1-18.8
			c1.8-0.9,4.5-0.9,6.2,0l32.1,18.8c1.8,0.9,2.7,3.6,2.7,5.4V180c0,1.8,0.9,4.5,2.7,5.4c1.8,0.9,4.5,0.9,6.2,0L2010.1,148.8z"/>
		<path fill="#80BD01" d="M1286.9,39.8c3.6-1.8,9-1.8,12.5,0l101.8,58.9c3.6,1.8,6.2,6.2,6.2,10.7v117.9c0,4.5-2.7,8.1-6.2,10.7
			L1299.4,297c-3.6,1.8-9,1.8-12.5,0l-101.8-58.9c-3.6-1.8-6.2-6.2-6.2-10.7V109.5c0-4.5,2.7-8.1,6.2-10.7L1286.9,39.8z"/>
		<path fill="#80BD01" d="M2208.4,297.9c-3.6,0-7.1-0.9-9.8-2.7l-32.1-18.8c-4.5-2.7-2.7-3.6-0.9-4.5c6.2-1.8,8.1-2.7,14.3-6.2
			c0.9,0,1.8,0,2.7,0l25,14.3c0.9,0.9,1.8,0.9,2.7,0l96.4-55.4c0.9-0.9,1.8-1.8,1.8-2.7V112.2c0-0.9-0.9-1.8-1.8-2.7l-96.4-55.4
			c-0.9-0.9-1.8-0.9-2.7,0l-96.4,55.4c-0.9,0.9-1.8,1.8-1.8,2.7v110.7c0,0.9,0.9,1.8,1.8,2.7l25.9,15.2c14.3,7.1,23.2-0.9,23.2-9.8
			V121.1c0-1.8,0.9-2.7,2.7-2.7h12.5c1.8,0,2.7,0.9,2.7,2.7V231c0,18.8-10.7,30.4-28.5,30.4c-5.4,0-9.8,0-22.3-6.2l-25-14.3
			c-6.2-3.6-9.8-10.7-9.8-17.8V112.2c0-7.1,3.6-14.3,9.8-17.8l96.4-55.4c6.2-3.6,14.3-3.6,20.5,0l96.4,55.4
			c6.2,3.6,9.8,10.7,9.8,17.8v110.7c0,7.1-3.6,14.3-9.8,17.8l-96.4,55.4C2214.6,297,2212,297.9,2208.4,297.9z"/>
		<path fill="#80BD01" d="M2237.9,222c-42,0-50.9-19.7-50.9-35.7c0-1.8,0.9-2.7,2.7-2.7h12.5c1.8,0,2.7,0.9,2.7,2.7
			c1.8,12.5,7.1,18.8,33,18.8c20.5,0,28.5-4.5,28.5-15.2c0-6.2-2.7-10.7-33.9-14.3c-25.9-2.7-42.8-8.1-42.8-29.5
			c0-19.7,16.1-31.3,43.7-31.3c30.4,0,46.4,10.7,48.2,33.9c0,0.9,0,1.8-0.9,1.8c-0.9,0.9-0.9,0.9-1.8,0.9h-12.5
			c-0.9,0-2.7-0.9-2.7-1.8c-2.7-13.4-9.8-17.8-30.4-17.8c-22.3,0-25,8.1-25,13.4c0,7.1,2.7,9,33,13.4c29.5,3.6,43.7,9.8,43.7,30.4
			C2285.2,209.5,2268.2,222,2237.9,222z"/>
		<path fill="#80BD01" d="M1901.2,143.4c0.9,0,1.8,0,2.7,0l19.7,11.6c0.9,0,0.9,0.9,0.9,1.8v22.3c0,0.9-0.9,1.8-0.9,1.8l-19.7,11.6
			c-0.9,0-1.8,0-2.7,0l-19.7-11.6c-0.9,0-0.9-0.9-0.9-1.8v-22.3c0-0.9,0.9-1.8,0.9-1.8L1901.2,143.4z"/>
		<g>
			<path fill="#80BD01" d="M2390.5,68.5c0,9.8-8.1,18.8-18.8,18.8c-9.8,0-18.8-8.1-18.8-18.8c0-10.7,9-18.8,18.8-18.8
				C2382.5,50.5,2390.5,58.6,2390.5,68.5z M2356.7,68.5c0,9,7.1,15.2,15.2,15.2c9,0,15.2-7.1,15.2-15.2c0-9-7.1-15.2-15.2-15.2
				S2356.7,60.4,2356.7,68.5z M2365.5,58.6h7.1c2.7,0,7.1,0,7.1,5.4c0,3.6-2.7,4.5-3.6,5.4c2.7,0,2.7,1.8,3.6,4.5
				c0,1.8,0.9,4.5,0.9,5.4h-4.5c0-0.9-0.9-6.2-0.9-6.2c0-0.9-0.9-1.8-1.8-1.8h-3.6v8.1h-4.5L2365.5,58.6L2365.5,58.6z M2369.1,67.5
				h3.6c2.7,0,3.6-1.8,3.6-2.7c0-2.7-1.8-2.7-2.7-2.7h-3.6v5.4L2369.1,67.5L2369.1,67.5z"/>
		</g>
	</g>
</g>
</svg>
