<?xml version="1.0" encoding="utf-8"?>
<!-- Generator: Adobe Illustrator 18.1.0, SVG Export Plug-In . SVG Version: 6.00 Build 0)  -->
<svg version="1.1" id="Layer_1" xmlns="http://www.w3.org/2000/svg" xmlns:xlink="http://www.w3.org/1999/xlink" x="0px" y="0px"
	 width="256px" height="256px" viewBox="0 0 256 256" enable-background="new 0 0 256 256" xml:space="preserve">
<g>
	<path fill="#80BD01" d="M127.4,256c-3.5,0-6.9-0.9-9.6-2.6L86.4,235c-4.4-2.6-2.6-3.5-0.9-4.4c6.1-1.8,7.9-2.6,14-6.1
		c0.9,0,1.8,0,2.6,0l24.5,14c0.9,0.9,1.8,0.9,2.6,0l94.3-54.2c0.9-0.9,1.8-1.8,1.8-2.6V74.3c0-0.9-0.9-1.8-1.8-2.6l-94.3-54.2
		c-0.9-0.9-1.8-0.9-2.6,0L32.2,71.6c-0.9,0.9-1.8,1.8-1.8,2.6v108.3c0,0.9,0.9,1.8,1.8,2.6l25.3,14.9c14,6.9,22.7-0.9,22.7-9.6V83
		c0-1.8,0.9-2.6,2.6-2.6h12.2c1.8,0,2.6,0.9,2.6,2.6v107.5c0,18.4-10.5,29.7-27.9,29.7c-5.3,0-9.6,0-21.8-6.1l-24.5-14
		c-6.1-3.5-9.6-10.5-9.6-17.4V74.3c0-6.9,3.5-14,9.6-17.4L118,2.6c6.1-3.5,14-3.5,20.1,0l94.3,54.2c6.1,3.5,9.6,10.5,9.6,17.4v108.3
		c0,6.9-3.5,14-9.6,17.4L138,254.2C133.4,255.1,130.9,256,127.4,256z"/>
	<path fill="#80BD01" d="M156.2,181.7c-41.1,0-49.8-19.3-49.8-34.9c0-1.8,0.9-2.6,2.6-2.6h12.2c1.8,0,2.6,0.9,2.6,2.6
		c1.8,12.2,6.9,18.4,32.3,18.4c20.1,0,27.9-4.4,27.9-14.9c0-6.1-2.6-10.5-33.2-14c-25.3-2.6-41.9-7.9-41.9-28.9
		c0-19.3,15.8-30.6,42.8-30.6c29.7,0,45.4,10.5,47.2,33.2c0,0.9,0,1.8-0.9,1.8c-0.9,0.9-0.9,0.9-1.8,0.9h-12.2
		c-0.9,0-2.6-0.9-2.6-1.8c-2.6-13.1-9.6-17.4-29.7-17.4c-21.8,0-24.5,7.9-24.5,13.1c0,6.9,2.6,8.8,32.3,13.1
		c28.9,3.5,42.8,9.6,42.8,29.7C202.5,169.5,185.9,181.7,156.2,181.7z"/>
</g>
</svg>
