<?xml version="1.0" encoding="utf-8"?>
<!-- Generator: Adobe Illustrator 18.1.0, SVG Export Plug-In . SVG Version: 6.00 Build 0)  -->
<svg version="1.1" id="Layer_1" xmlns="http://www.w3.org/2000/svg" xmlns:xlink="http://www.w3.org/1999/xlink" x="0px" y="0px"
	 width="399.7px" height="454.2px" viewBox="0 0 399.7 454.2" enable-background="new 0 0 399.7 454.2" xml:space="preserve">
<image display="none" overflow="visible" width="2280" height="2484" id="ps_x5F_restaerized" xlink:href="A30E5B58421453F2.png"  transform="matrix(0.24 0 0 0.24 -78.6906 -1.7259)">
</image>
<path id="bottom" fill="#123F2D" d="M399.7,379.7l-199.8,74.5L0,379.7l0-149l199.8-74.5l199.8,74.5V379.7z M329.8,259.8l-130-45.3
	l-130,45.3v90.7l130,45.3l130-45.3V259.8z"/>
<path id="middle" fill="#A2B537" d="M399.7,306.6l-199.8,74.5L0,306.6l0-149L199.8,83l199.8,74.5V306.6z M329.8,186.7l-130-45.3
	l-130,45.3v90.7l130,45.3l130-45.3V186.7z"/>
<path id="top" fill="#B3CC57" d="M399.7,223.6l-199.8,74.5L0,223.6l0-149L199.8,0l199.8,74.5V223.6z M329.8,103.7l-130-45.3
	l-130,45.3v90.7l130,45.3l130-45.3V103.7z"/>
</svg>
