<?xml version="1.0" encoding="utf-8"?>
<!-- Generator: Adobe Illustrator 18.1.0, SVG Export Plug-In . SVG Version: 6.00 Build 0)  -->
<svg version="1.1" id="Capa_1" xmlns="http://www.w3.org/2000/svg" xmlns:xlink="http://www.w3.org/1999/xlink" x="0px" y="0px"
	 width="612px" height="612px" viewBox="210 -210 612 612" enable-background="new 210 -210 612 612" xml:space="preserve">
<g>
	<path d="M820.4,302.7L724.4,6c-4.2-13.1-16.5-22-30.2-22H592.9c8.2-13.6,13-29.4,13-46.4c0-49.6-40.3-89.9-89.9-89.9
		c-49.6,0-89.9,40.3-89.9,89.9c0,17,4.8,32.8,13,46.4H337.8c-13.8,0-26,8.9-30.2,22l-96,296.7c-6.6,20.5,8.7,41.6,30.2,41.6h548.4
		C811.8,344.3,827.1,323.2,820.4,302.7z M468.5-62.4c0-26.2,21.3-47.5,47.5-47.5s47.5,21.3,47.5,47.5c0,22.7-16,41.7-37.3,46.4
		h-20.4C484.5-20.7,468.5-39.7,468.5-62.4z"/>
</g>
<g>
	<path fill="#FFFFFF" d="M398.3,110.6H438l21.8,49.9l21.8-49.9h39.9v130.3h-35.5v-48.7c0-12.3,0.6-24.8,1.8-37.5H485
		c-1.6,6.3-4.7,14.9-9.3,26l-16,38l-15.9-38c-4.6-11.1-7.7-19.7-9.3-26h-2.8c1.3,11.8,1.9,24.3,1.9,37.5v48.7h-35.5V110.6z"/>
	<path fill="#FFFFFF" d="M543.7,110.6h55.4c11.7,0,21.2,2.8,28.4,8.4c7.3,5.6,10.9,12.9,10.9,22.1c0,6.9-2.2,12.9-6.5,17.8
		c-4.4,5-10.9,9-19.7,12c12.3,1.5,21.5,5,27.6,10.4c6.1,5.4,9.2,12.8,9.2,22.1c0,11.5-5,20.6-14.9,27.3
		c-9.9,6.8-23.3,10.1-40.2,10.1h-50V110.6z M580,135.9v24.7h4c5.4,0,9.7-1.2,12.9-3.5c3.2-2.4,4.7-5.6,4.7-9.8
		c0-3.8-1.2-6.6-3.7-8.5c-2.5-1.9-6.2-2.8-11.2-2.8H580z M580,184.9v30.4h11.7c5.8,0,10.6-1.4,14.5-4.2c3.8-2.8,5.7-6.5,5.7-11
		c0-4.6-1.9-8.3-5.8-11.1c-3.9-2.8-8.7-4.2-14.4-4.2H580z"/>
</g>
</svg>
